<svg width="300" height="180" viewBox="0 0 300 180" fill="none" xmlns="http://www.w3.org/2000/svg">
  <rect x="2" y="2" width="296" height="176" rx="16" fill="#F8FAFC" stroke="#94A3B8" stroke-width="2"/>
  <rect x="30" y="40" width="48" height="36" rx="6" stroke="#94A3B8" stroke-width="2"/>
  <line x1="30" y1="52" x2="78" y2="52" stroke="#94A3B8" stroke-width="2"/>
  <line x1="30" y1="64" x2="78" y2="64" stroke="#94A3B8" stroke-width="2"/>
  <line x1="48" y1="40" x2="48" y2="76" stroke="#94A3B8" stroke-width="2"/>
  <line x1="60" y1="40" x2="60" y2="76" stroke="#94A3B8" stroke-width="2"/>
  
  <rect x="30" y="100" width="100" height="8" rx="4" fill="#E2E8F0"/>
  <rect x="30" y="120" width="60" height="8" rx="4" fill="#E2E8F0"/>
  
  <circle cx="240" cy="140" r="20" stroke="#94A3B8" stroke-width="2" stroke-dasharray="4 4"/>
  <circle cx="260" cy="140" r="20" stroke="#94A3B8" stroke-width="2" stroke-dasharray="4 4"/>

  <path d="M250 40C255 45 255 55 250 60" stroke="#94A3B8" stroke-width="2" stroke-linecap="round"/>
  <path d="M260 35C268 43 268 57 260 65" stroke="#94A3B8" stroke-width="2" stroke-linecap="round"/>
  <path d="M270 30C281 41 281 59 270 70" stroke="#94A3B8" stroke-width="2" stroke-linecap="round"/>
</svg>
